<svg width="32" height="33" viewBox="0 0 32 33" fill="none" xmlns="http://www.w3.org/2000/svg">
<path fill-rule="evenodd" clip-rule="evenodd" d="M22.2087 23.0611C22.7629 22.5762 22.8191 21.7338 22.3341 21.1797C21.8492 20.6255 21.0069 20.5693 20.4527 21.0542L17.3307 23.786V10.7243C17.3307 9.98791 16.7338 9.39095 15.9974 9.39095C15.261 9.39095 14.664 9.98791 14.664 10.7243V23.786L11.5421 21.0542C10.9879 20.5693 10.1455 20.6255 9.66062 21.1797C9.17571 21.7338 9.23187 22.5762 9.78605 23.0611L15.1194 27.7278C15.6221 28.1676 16.3727 28.1676 16.8754 27.7278L22.2087 23.0611ZM5.33072 10.7243C5.33072 11.4607 4.73377 12.0577 3.99739 12.0577C3.26101 12.0577 2.66406 11.4607 2.66406 10.7243V6.72429C2.66406 5.25153 3.85797 4.05762 5.33072 4.05762H26.664C28.1368 4.05762 29.3307 5.25153 29.3307 6.72429V10.7243C29.3307 11.4607 28.7338 12.0577 27.9974 12.0577C27.261 12.0577 26.664 11.4607 26.664 10.7243V6.72429H5.33072V10.7243Z" fill="#D9232E"/>
</svg>
