<svg width="32" height="33" viewBox="0 0 32 33" fill="none" xmlns="http://www.w3.org/2000/svg">
<path fill-rule="evenodd" clip-rule="evenodd" d="M12.1123 3.51642C12.3263 3.03492 12.8038 2.72461 13.3307 2.72461H21.2148C21.6532 2.72461 22.0636 2.94014 22.3125 3.30109C22.5613 3.66204 22.6169 4.12226 22.461 4.53204L19.6703 11.8675H23.9974C24.5351 11.8675 25.0202 12.1905 25.2276 12.6866C25.4349 13.1827 25.324 13.7548 24.9463 14.1375L10.2796 28.9947C9.85021 29.4296 9.18003 29.5169 8.65352 29.2065C8.12701 28.896 7.87901 28.2674 8.05178 27.6811L11.084 17.3913H7.99741C7.54606 17.3913 7.12536 17.1629 6.87942 16.7845C6.63347 16.4061 6.59568 15.9289 6.77899 15.5164L12.1123 3.51642ZM14.1972 5.39127L10.0491 14.7246H12.867C13.2873 14.7246 13.683 14.9228 13.9347 15.2594C14.1865 15.596 14.2647 16.0317 14.1459 16.4348L12.1095 23.3451L20.8076 14.5341H17.7365C17.2981 14.5341 16.8877 14.3186 16.6388 13.9577C16.3899 13.5967 16.3344 13.1365 16.4903 12.7267L19.281 5.39127H14.1972Z" fill="#D9232E"/>
</svg>
