<svg width="32" height="33" viewBox="0 0 32 33" fill="none" xmlns="http://www.w3.org/2000/svg">
<path fill-rule="evenodd" clip-rule="evenodd" d="M26.6641 8.72461C26.6641 6.88366 25.1717 5.39127 23.3308 5.39127L3.9974 5.39128C3.26102 5.39128 2.66406 4.79432 2.66406 4.05794C2.66406 3.32156 3.26102 2.72461 3.9974 2.72461H23.3308C26.6445 2.72461 29.3308 5.4109 29.3308 8.72461C29.3308 12.0383 26.6445 14.7246 23.3308 14.7246H8.66406C6.82311 14.7246 5.33073 16.217 5.33073 18.058C5.33073 19.8989 6.82312 21.3913 8.66406 21.3913H24.8222L21.8147 18.3249C21.2991 17.7992 21.3073 16.955 21.833 16.4394C22.3588 15.9237 23.2029 15.9319 23.7186 16.4577L28.9493 21.791C29.4579 22.3095 29.4579 23.1397 28.9493 23.6582L23.7186 28.9916C23.2029 29.5173 22.3588 29.5255 21.833 29.0099C21.3073 28.4942 21.2991 27.6501 21.8147 27.1243L24.8222 24.058H8.66406C5.35036 24.058 2.66406 21.3717 2.66406 18.058C2.66406 14.7442 5.35036 12.058 8.66406 12.058H23.3308C25.1717 12.058 26.6641 10.5656 26.6641 8.72461Z" fill="#D9232E"/>
</svg>
