<svg width="32" height="33" viewBox="0 0 32 33" fill="none" xmlns="http://www.w3.org/2000/svg">
<path fill-rule="evenodd" clip-rule="evenodd" d="M6.66667 4.05762C5.19391 4.05762 4 5.25153 4 6.72429V8.05762V12.0577C4 13.5304 5.19391 14.7243 6.66667 14.7243H12C13.4728 14.7243 14.6667 13.5304 14.6667 12.0577V6.72429C14.6667 5.25153 13.4728 4.05762 12 4.05762H6.66667ZM6.66667 6.72429H12V12.0577H6.66667V8.05762V6.72429ZM20 4.05762C18.5272 4.05762 17.3333 5.25153 17.3333 6.72429V8.05762V12.0577C17.3333 13.5304 18.5272 14.7243 20 14.7243H25.3333C26.8061 14.7243 28 13.5304 28 12.0577V6.72429C28 5.25153 26.8061 4.05762 25.3333 4.05762H20ZM20 6.72429H25.3333V12.0577H20V8.05762V6.72429ZM17.3333 20.0577C17.3333 18.5849 18.5272 17.391 20 17.391H25.3333C26.8061 17.391 28 18.5849 28 20.0577V25.391C28 26.8638 26.8061 28.0577 25.3333 28.0577H20C18.5272 28.0577 17.3333 26.8638 17.3333 25.391V21.391V20.0577ZM25.3333 20.0577H20V21.391V25.391H25.3333V20.0577ZM6.66667 17.391C5.19391 17.391 4 18.5849 4 20.0577V21.391V25.391C4 26.8638 5.19391 28.0577 6.66667 28.0577H12C13.4728 28.0577 14.6667 26.8638 14.6667 25.391V20.0577C14.6667 18.5849 13.4728 17.391 12 17.391H6.66667ZM6.66667 20.0577H12V25.391H6.66667V21.391V20.0577Z" fill="#D9232E"/>
</svg>
